{"title":"Finding.Bigfoot.S01E04.Fishing.for.Bigfoot.in.Oregon.HDTV.XviD-t","uid":6481837,"size":367570944,"categoryP":"video","categoryS":"tv_shows","magnet":"?xt=urn:btih:64e0ce843cc653157a7400dfe9e4037ee30b5a04&amp;dn=Finding.Bigfoot.S01E04.Fishing.for.Bigfoot.in.Oregon.HDTV.XviD-t&amp;tr=udp%3A%2F%2Ftracker.openbittorrent.com%3A80&amp;tr=udp%3A%2F%2Fopen.demonii.com%3A1337&amp;tr=udp%3A%2F%2Ftracker.coppersurfer.tk%3A6969&amp;tr=udp%3A%2F%2Fexodus.desync.com%3A6969","seeders":1,"leechers":0,"uploader":"trialNerror","files":1,"time":1308554631,"description":"Format                           : AVI\nFormat/Info                      : Audio Video Interleave\nFile size                        : 351 MiB\nDuration                         : 43mn 17s\nOverall bit rate                 : 1 132 Kbps\nWriting application              : VirtualDubMod 1.5.10.2 (build 2542/release)\nWriting library                  : VirtualDubMod build 2542/release\n\nVideo\nID                               : 0\nFormat                           : MPEG-4 Visual\nFormat profile                   : Advanced Simple@L5\nFormat settings, BVOP            : Yes\nFormat settings, QPel            : No\nFormat settings, GMC             : No warppoints\nFormat settings, Matrix          : Default (H.263)\nMuxing mode                      : Packed bitstream\nCodec ID                         : XVID\nCodec ID/Hint                    : XviD\nDuration                         : 43mn 17s\nBit rate                         : 991 Kbps\nWidth                            : 624 pixels\nHeight                           : 352 pixels\nDisplay aspect ratio             : 16:9\nFrame rate                       : 29.970 fps\nColor space                      : YUV\nChroma subsampling               : 4:2:0\nBit depth                        : 8 bits\nScan type                        : Progressive\nBits/(Pixel*Frame)               : 0.151\nStream size                      : 307 MiB (88%)\nWriting library                  : XviD 58\n\nAudio\nID                               : 1\nFormat                           : MPEG Audio\nFormat version                   : Version 1\nFormat profile                   : Layer 3\nMode                             : Joint stereo\nMode extension                   : MS Stereo\nCodec ID                         : 55\nCodec ID/Hint                    : MP3\nDuration                         : 43mn 17s\nBit rate mode                    : Variable\nBit rate                         : 128 Kbps\nChannel(s)                       : 2 channels\nSampling rate                    : 48.0 KHz\nStream size                      : 39.5 MiB (11%)\nAlignment                        : Aligned on interleaves\nInterleave, duration             : 24 ms (0.72 video frame)\nInterleave, preload duration     : 506 ms","torrent":{"xt":"urn:btih:64e0ce843cc653157a7400dfe9e4037ee30b5a04","amp;dn":"Finding.Bigfoot.S01E04.Fishing.for.Bigfoot.in.Oregon.HDTV.XviD-t","amp;tr":["udp%3A%2F%2Ftracker.openbittorrent.com%3A80","udp%3A%2F%2Fopen.demonii.com%3A1337","udp%3A%2F%2Ftracker.coppersurfer.tk%3A6969","udp%3A%2F%2Fexodus.desync.com%3A6969"],"infoHash":"64e0ce843cc653157a7400dfe9e4037ee30b5a04","infoHashBuffer":{"type":"Buffer","data":[100,224,206,132,60,198,83,21,122,116,0,223,233,228,3,126,227,11,90,4]},"announce":[],"urlList":[]}}